<?xml version="1.0" encoding="utf-8"?>
<!-- Generator: Adobe Illustrator 25.2.0, SVG Export Plug-In . SVG Version: 6.00 Build 0)  -->
<svg version="1.1" id="图层_1" xmlns="http://www.w3.org/2000/svg" xmlns:xlink="http://www.w3.org/1999/xlink" x="0px" y="0px"
	 viewBox="0 0 636.16 109.68" style="enable-background:new 0 0 636.16 109.68;" xml:space="preserve">
<style type="text/css">
	.st0{fill:#FFCC00;}
</style>
<path d="M586.22,21.99c-25.5,0-42.99,42.88-64.2,42.88c-7.64,0-14.27-6.35-14.27-14.27c0-7.83,6.24-14.28,14.26-14.28
	c4.88,0,9.67,2.38,13.95,5.62c1.63,1.23,2.54,1.95,4.94,1.98c3.69,0.03,7-2.86,7.14-6.79c0.06-1.7-0.57-4.19-2.32-5.53
	c-7.5-5.72-15-9.53-23.72-9.53c-15.77,0-28.53,12.79-28.53,28.52c0,15.14,12.2,28.54,28.54,28.54c28,0,48.45-42.79,64.2-42.79
	c11.46,0,25.46,9,29.83,14.25c-9.64,9.67-22.56,14.28-29.83,14.28c-4.61,0-8.68-3.45-11.32-5.48h-10.08v10.22
	c0,0,10.22,9.52,21.37,9.52c17.78,0,36.85-14.63,49.97-28.54C621.47,35.19,602.82,21.99,586.22,21.99"/>
<g>
	<g>
		<path d="M216.69,67.76l-3.61,11.37h-21l3.58-11.26h7.63l-9.49-29.94l-13.07,41.2h-14.5l15.43-48.66c1.6-5.06,6.3-8.49,11.6-8.49
			s10,3.44,11.6,8.49l7.2,22.7L216.69,67.76z"/>
		<polygon points="140.01,21.98 136.44,33.23 125.49,33.23 125.49,67.83 121.91,79.13 111.69,79.13 111.69,33.23 96.2,33.23 
			96.2,33.22 104.32,21.98 		"/>
		<polygon points="155.16,33.31 151.74,44.08 170,44.08 166.41,55.4 148.15,55.4 144.21,67.81 165.67,67.81 162.08,79.13 
			126.05,79.13 144.17,21.98 180.2,21.98 176.61,33.31 		"/>
		<g>
			<path d="M112.65,85.34h4.61v0.86h-3.6v2.7h3.05v0.85h-3.05v3.58h-1.01V85.34z"/>
			<path d="M122.83,89.32c0-2.56,1.41-4.12,3.41-4.12c2,0,3.41,1.56,3.41,4.12c0,2.56-1.41,4.16-3.41,4.16
				C124.24,93.48,122.83,91.88,122.83,89.32z M128.62,89.32c0-2-0.95-3.24-2.38-3.24c-1.44,0-2.38,1.23-2.38,3.24
				c0,1.99,0.94,3.28,2.38,3.28C127.67,92.6,128.62,91.31,128.62,89.32z"/>
			<path d="M136.06,85.34h2.51c1.62,0,2.79,0.59,2.79,2.26c0,1.24-0.72,1.98-1.81,2.24l2.05,3.5h-1.14l-1.94-3.39h-1.44v3.39h-1.01
				V85.34z M138.42,89.13c1.25,0,1.94-0.5,1.94-1.54c0-1.06-0.69-1.43-1.94-1.43h-1.34v2.96H138.42z"/>
			<path d="M155.99,90.23l-2.4-4.89h1.08l1.02,2.27c0.26,0.59,0.5,1.14,0.78,1.74h0.04c0.28-0.6,0.56-1.15,0.8-1.74l1.04-2.27h1.05
				l-2.4,4.89v3.1h-1.01V90.23z"/>
			<path d="M164.61,89.32c0-2.56,1.41-4.12,3.41-4.12c2,0,3.41,1.56,3.41,4.12c0,2.56-1.41,4.16-3.41,4.16
				C166.01,93.48,164.61,91.88,164.61,89.32z M170.39,89.32c0-2-0.95-3.24-2.37-3.24c-1.44,0-2.38,1.23-2.38,3.24
				c0,1.99,0.94,3.28,2.38,3.28C169.45,92.6,170.39,91.31,170.39,89.32z"/>
			<path d="M178.18,89.97v-4.7h1.01V90c0,1.93,0.82,2.53,1.85,2.53c1.07,0,1.91-0.6,1.91-2.53v-4.73h0.97v4.7
				c0,2.57-1.24,3.44-2.88,3.44C179.43,93.41,178.18,92.54,178.18,89.97z"/>
			<path d="M190.56,85.34h2.51c1.62,0,2.79,0.59,2.79,2.26c0,1.24-0.72,1.98-1.81,2.24l2.05,3.5h-1.14l-1.94-3.39h-1.44v3.39h-1.01
				V85.34z M192.92,89.13c1.25,0,1.94-0.5,1.94-1.54c0-1.06-0.69-1.43-1.94-1.43h-1.34v2.96H192.92z"/>
			<path d="M277.24,85.34h4.61v0.86h-3.6v2.7h3.05v0.85h-3.05v3.58h-1.01V85.34z"/>
			<path d="M287.42,89.32c0-2.56,1.41-4.12,3.41-4.12c2,0,3.41,1.56,3.41,4.12c0,2.56-1.41,4.16-3.41,4.16
				C288.82,93.48,287.42,91.88,287.42,89.32z M293.2,89.32c0-2-0.95-3.24-2.38-3.24c-1.44,0-2.38,1.23-2.38,3.24
				c0,1.99,0.94,3.28,2.38,3.28C292.25,92.6,293.2,91.31,293.2,89.32z"/>
			<path d="M300.64,85.34h2.51c1.62,0,2.79,0.59,2.79,2.26c0,1.24-0.72,1.98-1.81,2.24l2.05,3.5h-1.14l-1.94-3.39h-1.44v3.39h-1.01
				V85.34z M303,89.13c1.25,0,1.94-0.5,1.94-1.54c0-1.06-0.69-1.43-1.94-1.43h-1.34v2.96H303z"/>
			<path d="M320.58,90.23l-2.4-4.89h1.08l1.02,2.27c0.26,0.59,0.5,1.14,0.78,1.74h0.04c0.28-0.6,0.56-1.15,0.8-1.74l1.04-2.27h1.05
				l-2.4,4.89v3.1h-1.01V90.23z"/>
			<path d="M329.19,89.32c0-2.56,1.41-4.12,3.41-4.12c2,0,3.41,1.56,3.41,4.12c0,2.56-1.41,4.16-3.41,4.16
				C330.6,93.48,329.19,91.88,329.19,89.32z M334.98,89.32c0-2-0.95-3.24-2.38-3.24c-1.44,0-2.38,1.23-2.38,3.24
				c0,1.99,0.94,3.28,2.38,3.28C334.03,92.6,334.98,91.31,334.98,89.32z"/>
			<path d="M342.77,89.97v-4.7h1.01V90c0,1.93,0.82,2.53,1.85,2.53c1.07,0,1.91-0.6,1.91-2.53v-4.73h0.97v4.7
				c0,2.57-1.24,3.44-2.88,3.44C344.01,93.41,342.77,92.54,342.77,89.97z"/>
			<path d="M355.15,85.34h2.51c1.62,0,2.79,0.59,2.79,2.26c0,1.24-0.72,1.98-1.81,2.24l2.05,3.5h-1.14l-1.94-3.39h-1.44v3.39h-1.01
				V85.34z M357.5,89.13c1.25,0,1.94-0.5,1.94-1.54c0-1.06-0.69-1.43-1.94-1.43h-1.34v2.96H357.5z"/>
			<path d="M210.87,86.2h-2.42v-0.86h5.85v0.86h-2.42v7.14h-1.01V86.2z"/>
			<path d="M220.3,85.34h4.61v0.86h-3.6v2.51h3.03v0.86h-3.03v2.91h3.72v0.86h-4.73V85.34z"/>
			<path d="M233.03,85.34h1.12l2.71,8h-1.07l-0.76-2.44h-2.92l-0.77,2.44h-1.02L233.03,85.34z M232.36,90.09h2.42l-0.38-1.22
				c-0.29-0.9-0.54-1.78-0.81-2.7h-0.04c-0.25,0.94-0.51,1.8-0.8,2.7L232.36,90.09z"/>
			<path d="M242.72,85.34h1.22l1.54,4.28c0.19,0.56,0.37,1.11,0.57,1.67h0.05c0.19-0.56,0.36-1.11,0.54-1.67l1.53-4.28h1.22v8h-0.95
				v-4.42c0-0.69,0.08-1.66,0.13-2.35h-0.04l-0.63,1.82l-1.51,4.15h-0.68l-1.51-4.15l-0.63-1.82h-0.04c0.04,0.7,0.12,1.67,0.12,2.35
				v4.42h-0.92V85.34z"/>
			<path d="M373.95,85.34h2c2.45,0,3.77,1.44,3.77,3.98c0,2.53-1.32,4.02-3.73,4.02h-2.05V85.34z M375.87,92.51
				c1.89,0,2.81-1.18,2.81-3.19c0-2.03-0.93-3.15-2.81-3.15h-0.9v6.34H375.87z"/>
			<path d="M386.08,85.34h2.51c1.62,0,2.79,0.59,2.79,2.26c0,1.24-0.72,1.98-1.81,2.24l2.05,3.5h-1.14l-1.94-3.39h-1.44v3.39h-1.01
				V85.34z M388.43,89.13c1.25,0,1.94-0.5,1.94-1.54c0-1.06-0.69-1.43-1.94-1.43h-1.34v2.96H388.43z"/>
			<path d="M397.84,85.34h4.61v0.86h-3.6v2.51h3.03v0.86h-3.03v2.91h3.72v0.86h-4.73V85.34z"/>
			<path d="M410.57,85.34h1.12l2.71,8h-1.07l-0.76-2.44h-2.92l-0.77,2.44h-1.02L410.57,85.34z M409.91,90.09h2.42l-0.38-1.22
				c-0.29-0.9-0.54-1.78-0.81-2.7h-0.04c-0.25,0.94-0.51,1.8-0.8,2.7L409.91,90.09z"/>
			<path d="M420.24,85.34h1.22l1.54,4.28c0.19,0.56,0.37,1.11,0.57,1.67h0.05c0.19-0.56,0.36-1.11,0.54-1.67l1.53-4.28h1.22v8h-0.95
				v-4.42c0-0.69,0.08-1.66,0.13-2.35h-0.04l-0.63,1.82l-1.51,4.15h-0.68l-1.51-4.15l-0.63-1.82h-0.04c0.04,0.7,0.12,1.67,0.12,2.35
				v4.42h-0.92V85.34z"/>
		</g>
		<polygon points="273.4,21.99 273.4,67.84 269.82,79.14 258.48,79.14 262.07,67.83 262.07,39.86 256.31,64.91 248.65,79.14 
			238.92,79.14 238.92,64.95 236,55.74 232.15,43.6 232.15,67.89 228.58,79.14 217.23,79.14 220.82,67.83 220.82,21.99 
			237.23,21.99 241.97,36.93 247.24,53.57 251.88,33.39 254.5,21.99 		"/>
		<polygon points="354.12,33.31 350.69,44.08 368.95,44.08 365.36,55.4 347.1,55.4 343.17,67.81 364.62,67.81 361.03,79.13 
			325,79.13 343.12,21.98 379.15,21.98 375.56,33.31 		"/>
		<path d="M415.65,67.76l-3.61,11.37h-21l3.58-11.26h7.63l-9.49-29.94l-13.07,41.2h-14.5l15.43-48.66c1.6-5.06,6.3-8.49,11.6-8.49
			c5.3,0,10,3.44,11.6,8.49l7.2,22.7L415.65,67.76z"/>
		<polygon points="327.11,21.99 315.04,60.05 307.12,33.31 296.8,33.31 288.85,60.16 288.85,21.99 277.56,21.99 277.56,79.13 
			282.83,79.13 288.85,79.13 288.85,79.12 292.84,79.12 301.96,50.36 310.03,75.82 311.08,79.12 320.84,79.12 320.96,78.73 
			338.96,21.99 		"/>
		<path d="M433.09,56.48l16.35,22.65h14.81l-5.43-7.53l-14.5-20.09c3.17-3.13,5.14-7.48,5.14-12.28c0-9.52-7.75-17.27-17.27-17.27
			h-14.28h-6.14h-6.46l14.53,45.79l-3.61,11.37h7.22h5.39l3.61-11.37l-3.57-11.26h3.32C432.49,56.5,432.79,56.5,433.09,56.48z
			 M432.19,33.71c3.05,0,5.53,2.48,5.53,5.53c0,3.05-2.48,5.53-5.53,5.53h-7.05l-3.51-11.06H432.19z"/>
	</g>
	<g>
		<polygon points="76.75,49.13 112.54,-0.41 79.54,-0.41 60.25,26.31 76.74,49.13 		"/>
		<polygon points="60.24,82.96 79.54,109.68 112.54,109.68 76.74,60.13 		"/>
		<g>
			<polygon class="st0" points="42.35,96.73 47.03,90.25 14.04,90.25 9.36,96.73 			"/>
			<polygon class="st0" points="23.39,77.3 18.71,83.78 51.71,83.78 56.39,77.3 			"/>
			<polygon class="st0" points="39.77,54.63 37.43,57.87 70.42,57.87 72.77,54.63 70.43,51.4 37.43,51.4 			"/>
			<polygon class="st0" points="37.67,6.07 33,-0.41 0,-0.41 4.68,6.07 			"/>
			<polygon class="st0" points="32.75,64.35 28.07,70.82 61.07,70.82 65.75,64.35 			"/>
			<polygon class="st0" points="9.36,12.54 14.04,19.02 47.03,19.02 42.35,12.54 			"/>
			<polygon class="st0" points="28.08,38.45 32.76,44.92 65.75,44.92 61.07,38.45 			"/>
			<polygon class="st0" points="4.68,103.2 0,109.68 33,109.68 37.67,103.2 			"/>
			<polygon class="st0" points="18.72,25.49 23.4,31.97 56.39,31.97 51.71,25.49 			"/>
		</g>
	</g>
</g>
</svg>
